<svg xmlns="http://www.w3.org/2000/svg" xmlns:xlink="http://www.w3.org/1999/xlink" data-name="Layer 2" viewBox="0 0 273.22 61.88" style="fill: rgb(0, 0, 0);" original_string_length="3239" width="780.447269605791px" height="177.2444348555276px"><g data-name="Layer 1"><g><path d="M58.53,14.35c-.22.19-.44.39-.65.58-.22-.2-.43-.39-.65-.58C36.35-3.82,4.6.36,3.26.54L0,1v60.88h7.56V7.75c2.85-.17,7.36-.28,12.64.19v53.94h7.56V8.99c8.26,1.57,17.27,4.77,24.52,11.09.14.12.27.24.4.36-7.62,9.55-11.47,22.15-11.47,37.59v3.78h33.31v-3.78c0-15.44-3.85-28.05-11.47-37.59.13-.12.27-.24.4-.36,7.25-6.32,16.27-9.52,24.52-11.09v52.89h7.56V7.94c5.28-.47,9.79-.37,12.64-.19v54.13h7.56V1l-3.26-.45c-1.34-.19-33.09-4.36-53.96,13.8ZM66.88,54.25h-18.01c.54-11.41,3.56-20.83,9.01-28.14,5.45,7.31,8.47,16.73,9.01,28.14Z" style="fill: rgb(39, 111, 255);"/><path d="M153.66 3.7L145.4 17.62 136.92 3.7 131.3 3.7 131.3 27.82 137.61 27.82 137.61 15.38 143.78 25.44 146.81 25.44 153.01 15.04 153.08 27.82 159.35 27.82 159.28 3.7 153.66 3.7z" style="fill: rgb(255, 255, 255);"/><path d="M176.33,28.3c7.72,0,13.4-5.31,13.4-12.54s-5.68-12.54-13.4-12.54-13.4,5.31-13.4,12.54,5.69,12.54,13.4,12.54ZM176.33,8.87c3.65,0,6.51,2.72,6.51,6.89s-2.86,6.89-6.51,6.89-6.51-2.72-6.51-6.89,2.86-6.89,6.51-6.89Z" style="fill: rgb(255, 255, 255);"/><path d="M200.14,21.41h3.72l4.38,6.41h7.3l-5.2-7.58c3-1.45,4.72-4.07,4.72-7.61,0-5.51-4.14-8.92-10.72-8.92h-11.03v24.12h6.82v-6.41ZM200.14,9.08h3.79c2.83,0,4.24,1.31,4.24,3.55s-1.41,3.51-4.24,3.51h-3.79v-7.06Z" style="fill: rgb(255, 255, 255);"/><path d="M238.18 22.55L225.57 22.55 225.57 18.14 236.28 18.14 236.28 13.04 225.57 13.04 225.57 8.97 237.73 8.97 237.73 3.7 218.81 3.7 218.81 27.82 238.18 27.82 238.18 22.55z" style="fill: rgb(255, 255, 255);"/><path d="M152.71,46.81l-5.27-1.58c-.24,1.27-.59,2.41-1.07,3.45l-3.51-3.14c3.07-1.69,4.48-3.55,4.48-6.03,0-3.55-3-5.79-7.44-5.79-4.89,0-8.1,2.52-8.1,6.2,0,1.65.72,3.24,2.31,4.86-3.48,1.89-5.03,4.03-5.03,7.1,0,3.93,4.07,6.79,9.61,6.79,3.07,0,5.86-.9,8.1-2.48l2.72,2.41,3.51-4.03-2.55-2.27c1.03-1.58,1.79-3.45,2.24-5.48ZM139.89,38.02c1.28,0,1.93.65,1.93,1.62,0,.9-.65,1.69-2.52,2.69-1.24-1.17-1.55-1.76-1.55-2.52,0-1.03.76-1.79,2.14-1.79ZM139.17,53.66c-2.27,0-3.69-1.07-3.69-2.51,0-1.21.62-2.17,2.17-3.1l5.2,4.62c-1.1.65-2.38,1-3.69,1Z" style="fill: rgb(255, 255, 255);"/><path d="M188.71 34.06L180.44 47.98 171.97 34.06 166.35 34.06 166.35 58.18 172.65 58.18 172.65 45.74 178.82 55.8 181.85 55.8 188.06 45.39 188.12 58.18 194.4 58.18 194.33 34.06 188.71 34.06z" style="fill: rgb(255, 255, 255);"/><path d="M211.38,33.57c-7.72,0-13.4,5.31-13.4,12.54s5.68,12.54,13.4,12.54,13.4-5.31,13.4-12.54-5.69-12.54-13.4-12.54ZM211.38,53.01c-3.65,0-6.51-2.72-6.51-6.89s2.86-6.89,6.51-6.89,6.51,2.72,6.51,6.89-2.86,6.89-6.51,6.89Z" style="fill: rgb(255, 255, 255);"/><path d="M250.1,42.98c0-5.51-4.13-8.92-10.72-8.92h-11.03v24.12h6.82v-6.41h3.72l4.38,6.41h7.3l-5.2-7.58c3-1.45,4.72-4.07,4.72-7.61ZM238.98,46.5h-3.79v-7.06h3.79c2.82,0,4.24,1.31,4.24,3.55s-1.41,3.51-4.24,3.51Z" style="fill: rgb(255, 255, 255);"/><path d="M260.61 52.9L260.61 48.49 271.33 48.49 271.33 43.39 260.61 43.39 260.61 39.33 272.77 39.33 272.77 34.06 253.86 34.06 253.86 58.18 273.22 58.18 273.22 52.9 260.61 52.9z" style="fill: rgb(255, 255, 255);"/></g></g></svg>